<svg xmlns="http://www.w3.org/2000/svg" viewBox="0 0 200 100" fill="none">
  <g stroke="#3ECFBF" stroke-linecap="round" stroke-linejoin="round">
    <path d="M18,74 L18,62 Q20,54 40,52 L60,50 L76,34 L108,32 L146,50 L172,52 Q182,54 182,62 L182,74 L159,74 A11,11 0 0 0 137,74 L67,74 A11,11 0 0 0 45,74 Z" stroke-width="2.5"/>
    <path d="M79,36 L104,35 L128,48 L68,48 Z" stroke-width="2"/>
    <path d="M108,48 L108,70" stroke-width="1.5" opacity="0.6"/>
    <path d="M114,55 L122,55" stroke-width="1.5" opacity="0.6"/>
    <path d="M18,60 L27,61" stroke-width="2"/>
    <path d="M174,60 L182,61" stroke-width="2"/>
    <circle cx="56" cy="74" r="8" stroke-width="2.5"/>
    <circle cx="56" cy="74" r="3.4" stroke-width="1.5" opacity="0.55"/>
    <circle cx="148" cy="74" r="8" stroke-width="2.5"/>
    <circle cx="148" cy="74" r="3.4" stroke-width="1.5" opacity="0.55"/>
    <path d="M12,84 L188,84" stroke-width="1.5" opacity="0.3"/>
  </g>
</svg>
