<svg xmlns="http://www.w3.org/2000/svg" viewBox="0 0 200 100" fill="none">
  <g stroke="#3ECFBF" stroke-linecap="round" stroke-linejoin="round">
    <path d="M56,50 Q56,28 76,22 L98,20 Q116,24 126,30 L148,24 L164,20 L164,34 L146,38 L126,42 L108,48 L86,52 L68,56 Z" stroke-width="2.5"/>
    <path d="M70,24 L50,64" stroke-width="2.5"/>
    <path d="M70,20 L60,5 L48,11" stroke-width="2"/>
    <path d="M42,44 Q54,36 66,39" stroke-width="2"/>
    <path d="M92,50 L90,60 L116,60 L118,46" stroke-width="2"/>
    <path d="M116,58 L150,66" stroke-width="2.5"/>
    <circle cx="50" cy="66" r="19" stroke-width="2.5"/>
    <circle cx="50" cy="66" r="7" stroke-width="1.5" opacity="0.5"/>
    <circle cx="150" cy="66" r="19" stroke-width="2.5"/>
    <circle cx="150" cy="66" r="7" stroke-width="1.5" opacity="0.5"/>
    <path d="M12,84 L188,84" stroke-width="1.5" opacity="0.3"/>
  </g>
</svg>
